<svg xmlns="http://www.w3.org/2000/svg" viewBox="0 0 200 50" width="132" id="site-logo--simple" class="o-site-header__logo-image">
		<title>The Good</title>
		<g id="Group_751" data-name="Group 751" transform="translate(0 -0.1)">
			<path id="Path_577" data-name="Path 577" class="cls-1" fill="none" d="M149.98,37.2a4.482,4.482,0,0,0-4.075-2.3,5.581,5.581,0,0,0-4.594,2.593A13.905,13.905,0,0,0,139.2,45.05h12.373C151.61,41.605,151.091,38.9,149.98,37.2Z" transform="translate(-87.634 -21.909)"></path>
			<path id="Path_578" data-name="Path 578" class="cls-1" fill="none" d="M313.016,36.3a4.628,4.628,0,0,0-4.371,2.815q-1.445,2.778-1.445,8.446,0,5.612,1.445,8.446a4.8,4.8,0,0,0,8.742,0q1.445-2.834,1.445-8.446t-1.445-8.446A4.627,4.627,0,0,0,313.016,36.3Z" transform="translate(-193.399 -22.79)"></path>
			<path id="Path_579" data-name="Path 579" class="cls-1" fill="none" d="M394.316,36.3a4.628,4.628,0,0,0-4.371,2.815q-1.445,2.778-1.445,8.446,0,5.612,1.445,8.446a4.8,4.8,0,0,0,8.742,0q1.445-2.834,1.445-8.446t-1.445-8.446A4.628,4.628,0,0,0,394.316,36.3Z" transform="translate(-244.582 -22.79)"></path>
			<path id="Path_580" data-name="Path 580" class="cls-1" fill="none" d="M238.412,49.84a3.309,3.309,0,0,0,3.075-1.778,10.892,10.892,0,0,0,1.037-5.26,10.381,10.381,0,0,0-1.037-5.26,3.344,3.344,0,0,0-3.075-1.741,3.383,3.383,0,0,0-3.075,1.741A10.475,10.475,0,0,0,234.3,42.8a10.475,10.475,0,0,0,1.037,5.26A3.386,3.386,0,0,0,238.412,49.84Z" transform="translate(-147.505 -22.475)"></path>
			<path id="Path_581" data-name="Path 581" class="cls-1" fill="none" d="M241.306,102.141a8.06,8.06,0,0,0-4.075-.741H230.6a6.694,6.694,0,0,0-1,3.445,4.319,4.319,0,0,0,1.852,3.334,8.233,8.233,0,0,0,9.261-.111,4.548,4.548,0,0,0,1.889-3.7A2.224,2.224,0,0,0,241.306,102.141Z" transform="translate(-144.546 -63.774)"></path>
			<path id="Path_582" data-name="Path 582" class="cls-1" fill="none" d="M476.431,38.637a3.189,3.189,0,0,0-.593-.037,4.919,4.919,0,0,0-4.519,2.556c-1,1.7-1.519,4.26-1.519,7.705,0,3.112.444,5.446,1.334,6.964a3.747,3.747,0,0,0,.519.741,4.226,4.226,0,0,0,3.445,1.556,6.212,6.212,0,0,0,3.074-.852,11.6,11.6,0,0,0,2.927-2.593V41.156a11.41,11.41,0,0,0-2.741-1.889A6.518,6.518,0,0,0,476.431,38.637Z" transform="translate(-295.765 -24.238)"></path>
			<path id="Path_583" data-name="Path 583" class="cls-2" fill="#000000" d="M235.231,52.886c-1.593-.926-4.112-1.408-7.853-1.408h-4.445c-2.037,0-2.889-.593-3.112-1.667a1.758,1.758,0,0,1,.259-1.334,3.745,3.745,0,0,1,1.037-1,17.884,17.884,0,0,0,3.556.333,10.027,10.027,0,0,0,7.261-2.667,8.77,8.77,0,0,0,2.852-6.631,8.319,8.319,0,0,0-.926-3.853,1.442,1.442,0,0,1,1.259-2.037c.519-.037,1.185-.074,1.482-.074.7-.037.963-.037.963-.037V30.585h-7.705a12.922,12.922,0,0,0-3.038-.963,17.6,17.6,0,0,0-2.889-.222,11.553,11.553,0,0,0-7.779,2.519,8.506,8.506,0,0,0-2.927,6.742,8.548,8.548,0,0,0,1.482,5.149A9.221,9.221,0,0,0,219.154,47a15.367,15.367,0,0,0-3.7,2.26,3.62,3.62,0,0,0-1.3,2.667c0,1.334.889,2.482,2.7,3.445-3.7,1.185-5.557,2.964-5.557,5.371,0,1.63,1.185,3,3.556,4.038a22.843,22.843,0,0,0,9.113,1.593c4.149,0,7.483-.815,10-2.408a7.225,7.225,0,0,0,3.779-6.335A5.4,5.4,0,0,0,235.231,52.886ZM220.895,33.512a3.383,3.383,0,0,1,3.075-1.741,3.344,3.344,0,0,1,3.075,1.741,10.892,10.892,0,0,1,1.037,5.26,10.475,10.475,0,0,1-1.037,5.26,3.309,3.309,0,0,1-3.075,1.778,3.347,3.347,0,0,1-3.075-1.778,10.475,10.475,0,0,1-1.037-5.26A10.475,10.475,0,0,1,220.895,33.512ZM229.23,62.74a8.233,8.233,0,0,1-9.261.111,4.372,4.372,0,0,1-1.852-3.334,6.43,6.43,0,0,1,1-3.445h6.631a8.157,8.157,0,0,1,4.075.741,2.4,2.4,0,0,1,1.371,2.223A4.73,4.73,0,0,1,229.23,62.74Z" transform="translate(-133.025 -18.446)"></path>
			<path id="Path_584" data-name="Path 584" class="cls-2" fill="#000000" d="M299.607,29.5c-4.26,0-7.594,1.222-10.039,3.667S285.9,38.983,285.9,43.244s1.223,7.631,3.667,10.076,5.779,3.667,10.039,3.667q6.335,0,10-3.667c2.445-2.445,3.667-5.816,3.667-10.076s-1.222-7.631-3.667-10.076S303.83,29.5,299.607,29.5Zm4.371,22.19a4.8,4.8,0,0,1-8.742,0q-1.445-2.834-1.445-8.446t1.445-8.446a4.722,4.722,0,0,1,4.371-2.815,4.628,4.628,0,0,1,4.371,2.815q1.445,2.778,1.445,8.446T303.978,51.69Z" transform="translate(-179.99 -18.509)"></path>
			<path id="Path_585" data-name="Path 585" class="cls-2" fill="#000000" d="M380.907,29.5c-4.26,0-7.594,1.222-10.039,3.667S367.2,38.983,367.2,43.244s1.223,7.631,3.667,10.076,5.779,3.667,10.039,3.667q6.335,0,10-3.667c2.445-2.445,3.667-5.816,3.667-10.076s-1.222-7.631-3.667-10.076Q387.3,29.5,380.907,29.5Zm4.408,22.19a4.8,4.8,0,0,1-8.742,0q-1.445-2.834-1.445-8.446t1.445-8.446a4.722,4.722,0,0,1,4.371-2.815,4.663,4.663,0,0,1,4.371,2.815q1.445,2.778,1.445,8.446T385.315,51.69Z" transform="translate(-231.173 -18.509)"></path>
			<path id="Path_586" data-name="Path 586" class="cls-2" fill="#000000" d="M138.277,55.468a7.264,7.264,0,0,1-5.631-2.964c-1.259-1.7-2.112-4.371-2.223-8.261h17.189c0-5.89-1.778-9.187-3.779-11.076a9.214,9.214,0,0,0-6.705-2.667,11.091,11.091,0,0,0-8.409,3.741,14.516,14.516,0,0,0-3.519,9.817,14.468,14.468,0,0,0,3.482,9.965,12.241,12.241,0,0,0,9.261,3.556,14.963,14.963,0,0,0,9.632-3.816l-.852-.926A13.2,13.2,0,0,1,138.277,55.468Zm-5.742-20.745a5.581,5.581,0,0,1,4.594-2.593,4.482,4.482,0,0,1,4.075,2.3c1.111,1.741,1.593,4.408,1.593,7.89H130.423A13.409,13.409,0,0,1,132.535,34.723Z" transform="translate(-78.82 -19.138)"></path>
			<path id="Path_587" data-name="Path 587" class="cls-2" fill="#000000" d="M478.121,35.885a4.329,4.329,0,0,1-1.7-.445c-.889-.519-1.074-1.593-1.074-3.519V.1H464.377V1.915c1.074.037,2.371.037,3.149.741h0a1.45,1.45,0,0,1,.3.37c.444.7.37,1.667.37,3.482v7.742s0,.037-.037,0c-.222-.222-.407-.407-.63-.593a9.96,9.96,0,0,0-2.89-1.815,4.94,4.94,0,0,0-.667-.259,10.5,10.5,0,0,0-3.445-.556,9.739,9.739,0,0,0-1.815.148,9.366,9.366,0,0,0-4.593,2,11.824,11.824,0,0,0-1.778,1.815C450.3,17.622,449.3,21.1,449.3,25.475c0,4,.889,7.187,2.7,9.557a6.438,6.438,0,0,0,.445.519,9.224,9.224,0,0,0,1.926,1.7,8.961,8.961,0,0,0,4.89,1.334,9.847,9.847,0,0,0,4.483-1,7.345,7.345,0,0,0,.741-.407h.037a10.793,10.793,0,0,0,3.667-4.112h.037V38h10.928V36.033A5.812,5.812,0,0,0,478.121,35.885Zm-9.891-5.408A11.606,11.606,0,0,1,465.3,33.07a5.944,5.944,0,0,1-3.075.852,4.227,4.227,0,0,1-3.445-1.556,5.3,5.3,0,0,1-.519-.741c-.889-1.556-1.334-3.89-1.334-6.964,0-3.408.519-6,1.519-7.705a4.919,4.919,0,0,1,4.519-2.556,3.187,3.187,0,0,1,.593.037,5.936,5.936,0,0,1,1.963.593,12.586,12.586,0,0,1,2.741,1.889V30.476Z" transform="translate(-282.859)"></path>
			<path id="Path_588" data-name="Path 588" class="cls-2" fill="#000000" d="M71.553,35.652A2.736,2.736,0,0,1,71,33.577h0V19.611a9,9,0,0,0-1.889-6.038,6.578,6.578,0,0,0-5.223-2.186,10.365,10.365,0,0,0-5.223,1.371,12.626,12.626,0,0,0-4.112,3.853l-.111.185-.037-.037V.2h-9V1.534a4.372,4.372,0,0,1,.593.037c1.3.074,2.371.037,3.149.741s.7,1.667.7,3.853V33.17c0,1.222-.074,1.963-.593,2.445a3.01,3.01,0,0,1-1.926.778c-.593.074-1.3.148-1.667.148v1.371H58.366V36.541c-.407-.037-.963-.074-1.519-.148a3.01,3.01,0,0,1-1.926-.778,2.736,2.736,0,0,1-.556-2.074V19.019a15.274,15.274,0,0,1,4.445-3.7,7.959,7.959,0,0,1,3.482-1,3.51,3.51,0,0,1,3.186,1.408c.63.852.889,2.334.889,4.668v13.04a3.03,3.03,0,0,1-.556,2.223,3.01,3.01,0,0,1-1.926.778c-.519.074-1.111.111-1.519.148v1.371h13.04V36.615s-1.037-.074-1.963-.185A2.9,2.9,0,0,1,71.553,35.652Z" transform="translate(-28.582 -0.063)"></path>
			<path id="Path_589" data-name="Path 589" class="cls-2" fill="#000000" d="M8.409,14.9H7.668L3.853,17.012v4.853H0v1.852H2.482a1.265,1.265,0,0,1,1.334,1.371V39.349c0,3.3.556,5.149,1.815,6.52s2.778,1.815,5.52,1.815a17.014,17.014,0,0,0,3.927-.519V45.832a11.574,11.574,0,0,1-2.667.148,4.1,4.1,0,0,1-3.149-1.519c-.815-1.148-.852-2.482-.852-4.7V23.717h7.705V21.864H8.409Z" transform="translate(0 -9.317)"></path>
		</g>
	</svg>
